<svg version="1.0" xmlns="http://www.w3.org/2000/svg" width="40px" height="40px"
    viewBox="0 0 200.000000 200.000000" preserveAspectRatio="xMidYMid meet" fill="tomato">

    <g transform="translate(0.000000,200.000000) scale(0.100000,-0.100000)"  stroke="none">
        <path d="M950 1863 c0 -68 -25 -163 -60 -233 -37 -74 -116 -159 -271 -292 -66
-56 -141 -130 -166 -163 -111 -146 -159 -329 -133 -506 33 -232 168 -414 389
-524 78 -40 138 -55 236 -62 395 -26 725 285 725 682 0 150 -50 302 -130 396
l-29 34 -1 -45 c-2 -141 -61 -282 -159 -381 -67 -67 -147 -109 -207 -109 -65
0 -124 64 -124 135 0 52 20 91 101 196 124 159 153 234 153 394 -1 120 -24
192 -97 303 -44 65 -197 222 -218 222 -5 0 -9 -21 -9 -47z" />
    </g>
</svg>

